<svg xmlns="http://www.w3.org/2000/svg" xmlns:xlink="http://www.w3.org/1999/xlink" width="137" zoomAndPan="magnify" viewBox="0 0 102.75 128.249994" height="171" preserveAspectRatio="xMidYMid meet" version="1.0"><defs><clipPath id="2c2e1fe4a1"><path d="M 0.175781 0 L 102.328125 0 L 102.328125 127.503906 L 0.175781 127.503906 Z M 0.175781 0 " clip-rule="nonzero"/></clipPath><clipPath id="55a9ddec8d"><path d="M 6.40625 8.554688 L 94.605469 8.554688 L 94.605469 126.945312 L 6.40625 126.945312 Z M 6.40625 8.554688 " clip-rule="nonzero"/></clipPath><clipPath id="9da6489f0b"><path d="M 10.296875 10.625 L 92.117188 10.625 L 92.117188 92.445312 L 10.296875 92.445312 Z M 10.296875 10.625 " clip-rule="nonzero"/></clipPath><clipPath id="8337963e15"><path d="M 51.207031 10.625 C 28.613281 10.625 10.296875 28.941406 10.296875 51.535156 C 10.296875 74.128906 28.613281 92.445312 51.207031 92.445312 C 73.800781 92.445312 92.117188 74.128906 92.117188 51.535156 C 92.117188 28.941406 73.800781 10.625 51.207031 10.625 Z M 51.207031 10.625 " clip-rule="nonzero"/></clipPath><clipPath id="44d1096f36"><path d="M 15.007812 15.335938 L 87.316406 15.335938 L 87.316406 87.644531 L 15.007812 87.644531 Z M 15.007812 15.335938 " clip-rule="nonzero"/></clipPath><clipPath id="bee8180411"><path d="M 51.207031 15.335938 C 31.214844 15.335938 15.007812 31.542969 15.007812 51.535156 C 15.007812 71.523438 31.214844 87.730469 51.207031 87.730469 C 71.195312 87.730469 87.402344 71.523438 87.402344 51.535156 C 87.402344 31.542969 71.195312 15.335938 51.207031 15.335938 Z M 51.207031 15.335938 " clip-rule="nonzero"/></clipPath></defs><g clip-path="url(#2c2e1fe4a1)"><path fill="#ffffff" d="M 0.175781 0 L 102.328125 0 L 102.328125 127.503906 L 0.175781 127.503906 Z M 0.175781 0 " fill-opacity="1" fill-rule="nonzero"/></g><g clip-path="url(#55a9ddec8d)"><path fill="#000000" d="M 49.296875 8.578125 C 60.417969 8.578125 70.5 13.113281 77.820312 20.328125 C 85.074219 27.613281 89.632812 37.648438 89.632812 48.714844 C 89.632812 59.367188 85.417969 69.054688 78.648438 76.203125 L 94.328125 120.875 C 94.605469 121.355469 94.535156 121.976562 94.121094 122.523438 C 93.566406 123.210938 92.53125 123.28125 91.839844 122.730469 L 76.507812 110.566406 L 68.636719 124.929688 C 68.429688 125.34375 68.082031 125.6875 67.667969 125.824219 C 66.769531 126.097656 65.871094 125.617188 65.597656 124.792969 L 53.578125 88.574219 C 52.199219 88.710938 50.746094 88.78125 49.296875 88.78125 C 48.746094 88.78125 48.191406 88.78125 47.640625 88.78125 L 35.347656 125.617188 C 35.070312 126.511719 34.171875 126.921875 33.34375 126.648438 C 32.859375 126.511719 32.582031 126.167969 32.375 125.753906 L 24.503906 111.460938 L 9.101562 123.625 C 8.410156 124.175781 7.445312 124.035156 6.890625 123.347656 C 6.476562 122.867188 6.40625 122.25 6.683594 121.699219 L 21.949219 78.128906 L 22.015625 78.195312 C 21.601562 77.785156 21.1875 77.441406 20.84375 77.027344 C 13.519531 69.8125 9.03125 59.777344 9.03125 48.714844 C 9.03125 37.648438 13.519531 27.613281 20.84375 20.328125 C 28.09375 13.113281 38.175781 8.578125 49.296875 8.578125 Z M 76.714844 78.058594 C 76.371094 78.402344 76.027344 78.675781 75.679688 79.019531 C 76.027344 78.675781 76.371094 78.402344 76.714844 78.058594 Z M 75.679688 79.019531 C 75.542969 79.160156 75.402344 79.226562 75.335938 79.296875 C 75.402344 79.226562 75.542969 79.160156 75.679688 79.019531 Z M 75.335938 79.363281 C 73.816406 80.601562 72.296875 81.703125 70.636719 82.734375 C 72.296875 81.703125 73.816406 80.601562 75.335938 79.363281 Z M 75.542969 22.597656 C 68.84375 15.929688 59.519531 11.808594 49.296875 11.808594 C 39.074219 11.808594 29.820312 15.929688 23.121094 22.597656 C 16.421875 29.265625 12.210938 38.542969 12.210938 48.714844 C 12.210938 58.882812 16.421875 68.09375 23.121094 74.761719 C 29.820312 81.425781 39.074219 85.617188 49.296875 85.617188 C 59.519531 85.617188 68.84375 81.425781 75.542969 74.761719 C 82.242188 68.09375 86.386719 58.882812 86.386719 48.714844 C 86.386719 38.542969 82.242188 29.265625 75.542969 22.597656 Z M 75.542969 22.597656 " fill-opacity="1" fill-rule="nonzero"/></g><path fill="#000000" d="M 49.296875 18.953125 C 57.585938 18.953125 65.042969 22.253906 70.5 27.613281 C 75.886719 33.042969 79.203125 40.464844 79.203125 48.714844 C 79.203125 56.890625 75.886719 64.382812 70.5 69.742188 C 65.042969 75.171875 57.585938 78.472656 49.296875 78.472656 C 41.078125 78.472656 33.550781 75.171875 28.164062 69.742188 C 22.777344 64.382812 19.390625 56.890625 19.390625 48.714844 C 19.390625 40.464844 22.777344 33.042969 28.164062 27.613281 C 33.550781 22.253906 41.078125 18.953125 49.296875 18.953125 Z M 59.449219 61.496094 Z M 39.144531 61.496094 Z M 41.699219 63.144531 L 49.296875 58.058594 L 57.03125 63.144531 C 57.378906 63.421875 57.792969 63.488281 58.277344 63.421875 C 59.171875 63.214844 59.65625 62.320312 59.449219 61.496094 L 57.308594 52.285156 L 64.835938 46.859375 C 65.320312 46.582031 65.597656 46.03125 65.597656 45.484375 C 65.597656 44.589844 64.835938 43.902344 64.007812 43.902344 L 53.855469 43.902344 L 50.816406 35.035156 L 50.816406 34.96875 C 50.195312 33.523438 48.332031 33.730469 47.847656 34.96875 L 47.777344 34.96875 L 47.777344 35.035156 L 44.738281 43.902344 L 34.65625 43.902344 C 33.757812 43.902344 33.066406 44.589844 33.066406 45.484375 C 33.066406 46.03125 33.34375 46.582031 33.757812 46.859375 L 41.285156 52.285156 L 39.144531 61.496094 C 38.9375 62.320312 39.488281 63.214844 40.320312 63.421875 C 40.871094 63.488281 41.355469 63.421875 41.699219 63.144531 Z M 41.699219 63.144531 " fill-opacity="1" fill-rule="nonzero"/><path fill="#068cdc" d="M 96.863281 50.675781 C 102.226562 44.015625 100.929688 37.582031 93.417969 33.574219 C 93.183594 33.449219 93.070312 33.171875 93.148438 32.917969 C 95.589844 24.964844 92.054688 19.722656 83.753906 18.976562 C 83.488281 18.953125 83.273438 18.738281 83.25 18.472656 C 82.503906 10.171875 77.261719 6.636719 69.308594 9.078125 C 69.054688 9.15625 68.777344 9.042969 68.652344 8.808594 C 64.644531 1.296875 58.207031 0 51.550781 5.363281 C 51.347656 5.527344 51.054688 5.527344 50.851562 5.363281 C 44.191406 0 37.757812 1.296875 33.75 8.808594 C 33.621094 9.042969 33.347656 9.15625 33.09375 9.078125 C 25.140625 6.636719 19.898438 10.171875 19.152344 18.472656 C 19.125 18.738281 18.914062 18.953125 18.644531 18.976562 C 10.34375 19.722656 6.8125 24.964844 9.253906 32.917969 C 9.332031 33.171875 9.21875 33.449219 8.984375 33.574219 C 1.472656 37.582031 0.175781 44.015625 5.535156 50.675781 C 5.699219 50.878906 5.699219 51.171875 5.535156 51.375 C 0.175781 58.035156 1.472656 64.46875 8.984375 68.476562 C 9.21875 68.605469 9.332031 68.878906 9.253906 69.132812 C 6.8125 77.085938 10.34375 82.328125 18.644531 83.074219 C 18.914062 83.097656 19.125 83.3125 19.152344 83.582031 C 19.898438 91.882812 25.140625 95.414062 33.09375 92.972656 C 33.347656 92.894531 33.621094 93.007812 33.75 93.242188 C 37.757812 100.753906 44.191406 102.050781 50.851562 96.691406 C 51.054688 96.527344 51.347656 96.527344 51.550781 96.691406 C 58.207031 102.050781 64.644531 100.753906 68.652344 93.242188 C 68.777344 93.007812 69.054688 92.894531 69.308594 92.972656 C 77.261719 95.414062 82.503906 91.882812 83.25 83.582031 C 83.273438 83.3125 83.488281 83.097656 83.753906 83.074219 C 92.054688 82.328125 95.589844 77.085938 93.148438 69.132812 C 93.070312 68.878906 93.183594 68.605469 93.417969 68.476562 C 100.929688 64.46875 102.226562 58.035156 96.863281 51.375 C 96.699219 51.171875 96.699219 50.878906 96.863281 50.675781 Z M 96.863281 50.675781 " fill-opacity="1" fill-rule="nonzero"/><path fill="#068cdc" d="M 49.601562 50.617188 C 49.601562 63.464844 44.835938 70.558594 36.464844 70.558594 C 29.082031 70.558594 24.082031 63.640625 23.964844 51.140625 C 23.964844 38.46875 29.429688 31.492188 37.105469 31.492188 C 45.066406 31.492188 49.601562 38.585938 49.601562 50.617188 Z M 29.082031 51.199219 C 29.082031 61.023438 32.105469 66.605469 36.753906 66.605469 C 41.988281 66.605469 44.488281 60.5 44.488281 50.851562 C 44.488281 41.550781 42.101562 35.445312 36.8125 35.445312 C 32.335938 35.445312 29.082031 40.910156 29.082031 51.199219 Z M 29.082031 51.199219 " fill-opacity="1" fill-rule="nonzero"/><path fill="#068cdc" d="M 54.308594 69.917969 L 54.308594 66.78125 L 58.320312 62.882812 C 67.96875 53.699219 72.332031 48.816406 72.386719 43.121094 C 72.386719 39.285156 70.527344 35.738281 64.890625 35.738281 C 61.460938 35.738281 58.613281 37.480469 56.867188 38.933594 L 55.238281 35.332031 C 57.855469 33.121094 61.574219 31.492188 65.9375 31.492188 C 74.074219 31.492188 77.503906 37.074219 77.503906 42.480469 C 77.503906 49.457031 72.445312 55.09375 64.484375 62.769531 L 61.460938 65.558594 L 61.460938 65.675781 L 78.433594 65.675781 L 78.433594 69.917969 Z M 54.308594 69.917969 " fill-opacity="1" fill-rule="nonzero"/><g clip-path="url(#9da6489f0b)"><g clip-path="url(#8337963e15)"><path fill="#ffffff" d="M 10.296875 10.625 L 92.117188 10.625 L 92.117188 92.445312 L 10.296875 92.445312 Z M 10.296875 10.625 " fill-opacity="1" fill-rule="nonzero"/></g></g><g clip-path="url(#44d1096f36)"><g clip-path="url(#bee8180411)"><path stroke-linecap="butt" transform="matrix(0.794564, 0, 0, 0.794564, 15.009304, 15.337731)" fill="none" stroke-linejoin="miter" d="M 45.556701 -0.002257 C 20.395505 -0.002257 -0.00187706 20.395125 -0.00187706 45.556321 C -0.00187706 70.712601 20.395505 91.109983 45.556701 91.109983 C 70.712981 91.109983 91.110363 70.712601 91.110363 45.556321 C 91.110363 20.395125 70.712981 -0.002257 45.556701 -0.002257 Z M 45.556701 -0.002257 " stroke="#000000" stroke-width="3.753703" stroke-opacity="1" stroke-miterlimit="4"/></g></g></svg>