<svg xmlns="http://www.w3.org/2000/svg" xmlns:xlink="http://www.w3.org/1999/xlink" width="794" zoomAndPan="magnify" viewBox="0 0 595.5 842.249979" height="1123" preserveAspectRatio="xMidYMid meet" version="1.0"><defs><filter x="0%" y="0%" width="100%" height="100%" id="92f36223a4"><feColorMatrix values="0 0 0 0 1 0 0 0 0 1 0 0 0 0 1 0 0 0 1 0" color-interpolation-filters="sRGB"/></filter><clipPath id="d71cd723da"><path d="M 0.015625 0 L 594.984375 0 L 594.984375 841.5 L 0.015625 841.5 Z M 0.015625 0 " clip-rule="nonzero"/></clipPath><mask id="2620fca9d6"><g filter="url(#92f36223a4)"><rect x="-59.55" width="714.6" fill="#000000" y="-84.224998" height="1010.699974" fill-opacity="0.2"/></g></mask><clipPath id="0a887d5968"><path d="M 22.605469 25.722656 L 571.867188 25.722656 L 571.867188 815.414062 L 22.605469 815.414062 Z M 22.605469 25.722656 " clip-rule="nonzero"/></clipPath><clipPath id="3144b7c0f5"><rect x="0" width="595" y="0" height="842"/></clipPath><mask id="2cb80f6d8c"><g filter="url(#92f36223a4)"><rect x="-59.55" width="714.6" fill="#000000" y="-84.224998" height="1010.699974" fill-opacity="0.21"/></g></mask><clipPath id="306900fe7f"><path d="M 0.8125 0.714844 L 210 0.714844 L 210 209.992188 L 0.8125 209.992188 Z M 0.8125 0.714844 " clip-rule="nonzero"/></clipPath><clipPath id="f2e7a4a9e6"><rect x="0" width="211" y="0" height="210"/></clipPath><clipPath id="37251042ef"><path d="M 30.800781 34.476562 L 133 34.476562 L 133 137 L 30.800781 137 Z M 30.800781 34.476562 " clip-rule="nonzero"/></clipPath><clipPath id="8cc1ff49a7"><path d="M 459 703 L 562.984375 703 L 562.984375 807 L 459 807 Z M 459 703 " clip-rule="nonzero"/></clipPath><mask id="78160759e0"><g filter="url(#92f36223a4)"><rect x="-59.55" width="714.6" fill="#000000" y="-84.224998" height="1010.699974" fill-opacity="0.2"/></g></mask><clipPath id="5693bec68b"><path d="M 0.554688 0.046875 L 195 0.046875 L 195 194.296875 L 0.554688 194.296875 Z M 0.554688 0.046875 " clip-rule="nonzero"/></clipPath><clipPath id="17cfe3a31c"><rect x="0" width="196" y="0" height="195"/></clipPath></defs><g clip-path="url(#d71cd723da)"><path fill="#ffffff" d="M 0.015625 0 L 594.984375 0 L 594.984375 841.5 L 0.015625 841.5 Z M 0.015625 0 " fill-opacity="1" fill-rule="nonzero"/><path fill="#ffffff" d="M 0.015625 0 L 594.984375 0 L 594.984375 841.5 L 0.015625 841.5 Z M 0.015625 0 " fill-opacity="1" fill-rule="nonzero"/><g mask="url(#2620fca9d6)"><g transform="matrix(1, 0, 0, 1, -0.000000000000000002, 0)"><g clip-path="url(#3144b7c0f5)"><g clip-path="url(#0a887d5968)"><path stroke-linecap="butt" transform="matrix(0.749333, 0, 0, 0.749333, 22.605848, 25.721761)" fill="none" stroke-linejoin="miter" d="M -0.00050592 0.00119466 L 733.391611 0.00119466 L 733.391611 1053.860738 L -0.00050592 1053.860738 Z M -0.00050592 0.00119466 " stroke="#000000" stroke-width="26" stroke-opacity="1" stroke-miterlimit="4"/></g></g></g></g></g><g mask="url(#2cb80f6d8c)"><g transform="matrix(1, 0, 0, 1, 362, 25)"><g clip-path="url(#f2e7a4a9e6)"><g clip-path="url(#306900fe7f)"><path fill="#068cdc" d="M 0.871094 9.335938 L 0.871094 0.714844 L 209.96875 0.714844 L 209.96875 209.808594 L 201.34375 209.808594 L 201.34375 9.335938 Z M 0.871094 9.335938 " fill-opacity="1" fill-rule="nonzero"/></g></g></g></g><g clip-path="url(#37251042ef)"><path fill="#068cdc" d="M 35.007812 136.648438 L 30.800781 136.648438 L 30.800781 34.574219 L 132.875 34.574219 L 132.875 38.785156 L 35.007812 38.785156 Z M 35.007812 136.648438 " fill-opacity="1" fill-rule="nonzero"/></g><g clip-path="url(#8cc1ff49a7)"><path fill="#068cdc" d="M 558.710938 703.367188 L 562.984375 703.367188 L 562.984375 806.984375 L 459.371094 806.984375 L 459.371094 802.710938 L 558.710938 802.710938 Z M 558.710938 703.367188 " fill-opacity="1" fill-rule="nonzero"/></g><g mask="url(#78160759e0)"><g transform="matrix(1, 0, 0, 1, 22, 621)"><g clip-path="url(#17cfe3a31c)"><g clip-path="url(#5693bec68b)"><path fill="#068cdc" d="M 0.792969 194.414062 L 0.792969 0.261719 L 8.796875 0.261719 L 8.796875 186.40625 L 194.945312 186.40625 L 194.945312 194.414062 Z M 0.792969 194.414062 " fill-opacity="1" fill-rule="nonzero"/></g></g></g></g></svg>