<svg xmlns="http://www.w3.org/2000/svg" xmlns:xlink="http://www.w3.org/1999/xlink" width="513" zoomAndPan="magnify" viewBox="0 0 384.75 40.499999" height="54" preserveAspectRatio="xMidYMid meet" version="1.0"><defs><clipPath id="38265c246f"><path d="M 295.410156 22.046875 L 299.035156 22.046875 L 299.035156 25.703125 L 295.410156 25.703125 Z M 295.410156 22.046875 " clip-rule="nonzero"/></clipPath><clipPath id="bce1161b7f"><path d="M 291 22.027344 L 294 22.027344 L 294 25 L 291 25 Z M 291 22.027344 " clip-rule="nonzero"/></clipPath><clipPath id="d3454d2ec3"><path d="M 63 22.027344 L 65 22.027344 L 65 25 L 63 25 Z M 63 22.027344 " clip-rule="nonzero"/></clipPath><clipPath id="3c32ca3ce3"><path d="M 57.523438 22.046875 L 61.207031 22.046875 L 61.207031 25.703125 L 57.523438 25.703125 Z M 57.523438 22.046875 " clip-rule="nonzero"/></clipPath></defs><path fill="#000000" d="M 297.25 24.261719 L 59.308594 24.261719 C 59.097656 24.261719 58.929688 24.089844 58.929688 23.875 C 58.929688 23.660156 59.097656 23.488281 59.308594 23.488281 L 297.25 23.488281 C 297.457031 23.488281 297.628906 23.660156 297.628906 23.875 C 297.628906 24.089844 297.457031 24.261719 297.25 24.261719 " fill-opacity="1" fill-rule="nonzero"/><g clip-path="url(#38265c246f)"><path fill="#000000" d="M 295.464844 23.875 C 295.464844 22.867188 296.265625 22.046875 297.25 22.046875 C 298.234375 22.046875 299.035156 22.867188 299.035156 23.875 C 299.035156 24.886719 298.234375 25.703125 297.25 25.703125 C 296.265625 25.703125 295.464844 24.886719 295.464844 23.875 " fill-opacity="1" fill-rule="nonzero"/></g><g clip-path="url(#bce1161b7f)"><path fill="#000000" d="M 291.605469 23.875 C 291.605469 23.328125 292.039062 22.886719 292.570312 22.886719 C 293.101562 22.886719 293.535156 23.328125 293.535156 23.875 C 293.535156 24.421875 293.101562 24.863281 292.570312 24.863281 C 292.039062 24.863281 291.605469 24.421875 291.605469 23.875 " fill-opacity="1" fill-rule="nonzero"/></g><g clip-path="url(#d3454d2ec3)"><path fill="#000000" d="M 63.023438 23.875 C 63.023438 23.328125 63.453125 22.886719 63.984375 22.886719 C 64.519531 22.886719 64.953125 23.328125 64.953125 23.875 C 64.953125 24.421875 64.519531 24.863281 63.984375 24.863281 C 63.453125 24.863281 63.023438 24.421875 63.023438 23.875 " fill-opacity="1" fill-rule="nonzero"/></g><g clip-path="url(#3c32ca3ce3)"><path fill="#000000" d="M 57.523438 23.875 C 57.523438 22.867188 58.320312 22.046875 59.308594 22.046875 C 60.292969 22.046875 61.089844 22.867188 61.089844 23.875 C 61.089844 24.886719 60.292969 25.703125 59.308594 25.703125 C 58.320312 25.703125 57.523438 24.886719 57.523438 23.875 " fill-opacity="1" fill-rule="nonzero"/></g></svg>